<svg width="500" height="500" viewBox="0 0 500 500" fill="none" xmlns="http://www.w3.org/2000/svg">
<g clip-path="url(#clip0_2_2)">
<rect width="500" height="500" rx="8" fill="white"/>
<path d="M500.061 251.061C500.646 250.475 500.646 249.525 500.061 248.939L490.515 239.393C489.929 238.808 488.979 238.808 488.393 239.393C487.808 239.979 487.808 240.929 488.393 241.515L496.879 250L488.393 258.485C487.808 259.071 487.808 260.021 488.393 260.607C488.979 261.192 489.929 261.192 490.515 260.607L500.061 251.061ZM1 251.5L499 251.5L499 248.5L1 248.5L1 251.5Z" fill="#D88080"/>
<rect x="274" y="240" width="2" height="20" fill="#D88080"/>
<rect x="224" y="240" width="2" height="20" fill="#D88080"/>
<rect x="199" y="240" width="2" height="20" fill="#D88080"/>
<rect x="174" y="240" width="2" height="20" fill="#D88080"/>
<rect x="149" y="240" width="2" height="20" fill="#D88080"/>
<rect x="124" y="240" width="2" height="20" fill="#D88080"/>
<rect x="99" y="240" width="2" height="20" fill="#D88080"/>
<rect x="74" y="240" width="2" height="20" fill="#D88080"/>
<rect x="49" y="240" width="2" height="20" fill="#D88080"/>
<rect x="24" y="240" width="2" height="20" fill="#D88080"/>
<rect y="240" width="2" height="20" fill="#D88080"/>
<rect x="299" y="240" width="2" height="20" fill="#D88080"/>
<rect x="324" y="240" width="2" height="20" fill="#D88080"/>
<rect x="349" y="240" width="2" height="20" fill="#D88080"/>
<rect x="374" y="240" width="2" height="20" fill="#D88080"/>
<rect x="399" y="240" width="2" height="20" fill="#D88080"/>
<rect x="424" y="240" width="2" height="20" fill="#D88080"/>
<rect x="449" y="240" width="2" height="20" fill="#D88080"/>
<rect x="474" y="240" width="2" height="20" fill="#D88080"/>
<path d="M251.061 -0.0606603C250.475 -0.646447 249.525 -0.646447 248.939 -0.0606601L239.393 9.48528C238.808 10.0711 238.808 11.0208 239.393 11.6066C239.979 12.1924 240.929 12.1924 241.515 11.6066L250 3.12132L258.485 11.6066C259.071 12.1924 260.021 12.1924 260.607 11.6066C261.192 11.0208 261.192 10.0711 260.607 9.48528L251.061 -0.0606603ZM251.5 499L251.5 1L248.5 1L248.5 499L251.5 499Z" fill="#80B3D8"/>
<rect x="240" y="226" width="2" height="20" transform="rotate(-90 240 226)" fill="#80B3D8"/>
<rect x="240" y="276" width="2" height="20" transform="rotate(-90 240 276)" fill="#80B3D8"/>
<rect x="240" y="301" width="2" height="20" transform="rotate(-90 240 301)" fill="#80B3D8"/>
<rect x="240" y="326" width="2" height="20" transform="rotate(-90 240 326)" fill="#80B3D8"/>
<rect x="240" y="351" width="2" height="20" transform="rotate(-90 240 351)" fill="#80B3D8"/>
<rect x="240" y="376" width="2" height="20" transform="rotate(-90 240 376)" fill="#80B3D8"/>
<rect x="240" y="401" width="2" height="20" transform="rotate(-90 240 401)" fill="#80B3D8"/>
<rect x="240" y="426" width="2" height="20" transform="rotate(-90 240 426)" fill="#80B3D8"/>
<rect x="240" y="451" width="2" height="20" transform="rotate(-90 240 451)" fill="#80B3D8"/>
<rect x="240" y="476" width="2" height="20" transform="rotate(-90 240 476)" fill="#80B3D8"/>
<rect x="240" y="500" width="2" height="20" transform="rotate(-90 240 500)" fill="#80B3D8"/>
<rect x="240" y="201" width="2" height="20" transform="rotate(-90 240 201)" fill="#80B3D8"/>
<rect x="240" y="176" width="2" height="20" transform="rotate(-90 240 176)" fill="#80B3D8"/>
<rect x="240" y="151" width="2" height="20" transform="rotate(-90 240 151)" fill="#80B3D8"/>
<rect x="240" y="126" width="2" height="20" transform="rotate(-90 240 126)" fill="#80B3D8"/>
<rect x="240" y="101" width="2" height="20" transform="rotate(-90 240 101)" fill="#80B3D8"/>
<rect x="240" y="76" width="2" height="20" transform="rotate(-90 240 76)" fill="#80B3D8"/>
<rect x="240" y="51" width="2" height="20" transform="rotate(-90 240 51)" fill="#80B3D8"/>
<rect x="240" y="26" width="2" height="20" transform="rotate(-90 240 26)" fill="#80B3D8"/>
<circle cx="250" cy="250" r="4" fill="#C688D6"/>
<path d="M257.75 266.119C257.108 266.119 256.561 265.945 256.109 265.595C255.658 265.243 255.313 264.733 255.074 264.065C254.835 263.395 254.716 262.585 254.716 261.636C254.716 260.693 254.835 259.888 255.074 259.22C255.315 258.55 255.662 258.038 256.114 257.686C256.568 257.331 257.114 257.153 257.75 257.153C258.386 257.153 258.93 257.331 259.382 257.686C259.837 258.038 260.183 258.55 260.422 259.22C260.663 259.888 260.784 260.693 260.784 261.636C260.784 262.585 260.665 263.395 260.426 264.065C260.188 264.733 259.842 265.243 259.391 265.595C258.939 265.945 258.392 266.119 257.75 266.119ZM257.75 265.182C258.386 265.182 258.881 264.875 259.233 264.261C259.585 263.648 259.761 262.773 259.761 261.636C259.761 260.881 259.68 260.237 259.518 259.706C259.359 259.175 259.129 258.77 258.828 258.491C258.53 258.213 258.17 258.074 257.75 258.074C257.119 258.074 256.626 258.385 256.271 259.007C255.916 259.626 255.739 260.503 255.739 261.636C255.739 262.392 255.818 263.034 255.977 263.562C256.136 264.091 256.365 264.493 256.663 264.768C256.964 265.044 257.327 265.182 257.75 265.182Z" fill="#C688D6"/>
<path d="M271.307 4.27273H272.517L274.938 8.34659H275.04L277.46 4.27273H278.67L275.517 9.40341V13H274.46V9.40341L271.307 4.27273Z" fill="#80B3D8"/>
<path d="M489.568 221.273L491.818 224.903H491.886L494.136 221.273H495.381L492.636 225.636L495.381 230H494.136L491.886 226.438H491.818L489.568 230H488.324L491.136 225.636L488.324 221.273H489.568Z" fill="#D88080"/>
</g>
<defs>
<clipPath id="clip0_2_2">
<rect width="500" height="500" rx="8" fill="white"/>
</clipPath>
</defs>
</svg>
