<svg width="500" height="500" viewBox="0 0 500 500" fill="none" xmlns="http://www.w3.org/2000/svg">
<g clip-path="url(#clip0_2_2)">
<rect width="500" height="500" rx="8" fill="white"/>
<path d="M500.061 251.061C500.646 250.475 500.646 249.525 500.061 248.939L490.515 239.393C489.929 238.808 488.979 238.808 488.393 239.393C487.808 239.979 487.808 240.929 488.393 241.515L496.879 250L488.393 258.485C487.808 259.071 487.808 260.021 488.393 260.607C488.979 261.192 489.929 261.192 490.515 260.607L500.061 251.061ZM1 251.5L499 251.5L499 248.5L1 248.5L1 251.5Z" fill="#D88080"/>
<rect x="274" y="240" width="2" height="20" fill="#D88080"/>
<rect x="224" y="240" width="2" height="20" fill="#D88080"/>
<rect x="199" y="240" width="2" height="20" fill="#D88080"/>
<rect x="174" y="240" width="2" height="20" fill="#D88080"/>
<rect x="149" y="240" width="2" height="20" fill="#D88080"/>
<rect x="124" y="240" width="2" height="20" fill="#D88080"/>
<rect x="99" y="240" width="2" height="20" fill="#D88080"/>
<rect x="74" y="240" width="2" height="20" fill="#D88080"/>
<rect x="49" y="240" width="2" height="20" fill="#D88080"/>
<rect x="24" y="240" width="2" height="20" fill="#D88080"/>
<rect y="240" width="2" height="20" fill="#D88080"/>
<rect x="299" y="240" width="2" height="20" fill="#D88080"/>
<rect x="324" y="240" width="2" height="20" fill="#D88080"/>
<rect x="349" y="240" width="2" height="20" fill="#D88080"/>
<rect x="374" y="240" width="2" height="20" fill="#D88080"/>
<rect x="399" y="240" width="2" height="20" fill="#D88080"/>
<rect x="424" y="240" width="2" height="20" fill="#D88080"/>
<rect x="449" y="240" width="2" height="20" fill="#D88080"/>
<rect x="474" y="240" width="2" height="20" fill="#D88080"/>
<path d="M251.061 -0.0606603C250.475 -0.646447 249.525 -0.646447 248.939 -0.0606601L239.393 9.48528C238.808 10.0711 238.808 11.0208 239.393 11.6066C239.979 12.1924 240.929 12.1924 241.515 11.6066L250 3.12132L258.485 11.6066C259.071 12.1924 260.021 12.1924 260.607 11.6066C261.192 11.0208 261.192 10.0711 260.607 9.48528L251.061 -0.0606603ZM251.5 499L251.5 1L248.5 1L248.5 499L251.5 499Z" fill="#80B3D8"/>
<rect x="240" y="226" width="2" height="20" transform="rotate(-90 240 226)" fill="#80B3D8"/>
<rect x="240" y="276" width="2" height="20" transform="rotate(-90 240 276)" fill="#80B3D8"/>
<rect x="240" y="301" width="2" height="20" transform="rotate(-90 240 301)" fill="#80B3D8"/>
<rect x="240" y="326" width="2" height="20" transform="rotate(-90 240 326)" fill="#80B3D8"/>
<rect x="240" y="351" width="2" height="20" transform="rotate(-90 240 351)" fill="#80B3D8"/>
<rect x="240" y="376" width="2" height="20" transform="rotate(-90 240 376)" fill="#80B3D8"/>
<rect x="240" y="401" width="2" height="20" transform="rotate(-90 240 401)" fill="#80B3D8"/>
<rect x="240" y="426" width="2" height="20" transform="rotate(-90 240 426)" fill="#80B3D8"/>
<rect x="240" y="451" width="2" height="20" transform="rotate(-90 240 451)" fill="#80B3D8"/>
<rect x="240" y="476" width="2" height="20" transform="rotate(-90 240 476)" fill="#80B3D8"/>
<rect x="240" y="500" width="2" height="20" transform="rotate(-90 240 500)" fill="#80B3D8"/>
<rect x="240" y="201" width="2" height="20" transform="rotate(-90 240 201)" fill="#80B3D8"/>
<rect x="240" y="176" width="2" height="20" transform="rotate(-90 240 176)" fill="#80B3D8"/>
<rect x="240" y="151" width="2" height="20" transform="rotate(-90 240 151)" fill="#80B3D8"/>
<rect x="240" y="126" width="2" height="20" transform="rotate(-90 240 126)" fill="#80B3D8"/>
<rect x="240" y="101" width="2" height="20" transform="rotate(-90 240 101)" fill="#80B3D8"/>
<rect x="240" y="76" width="2" height="20" transform="rotate(-90 240 76)" fill="#80B3D8"/>
<rect x="240" y="51" width="2" height="20" transform="rotate(-90 240 51)" fill="#80B3D8"/>
<rect x="240" y="26" width="2" height="20" transform="rotate(-90 240 26)" fill="#80B3D8"/>
<circle cx="250" cy="250" r="4" fill="#C688D6"/>
<path d="M257.75 266.119C257.108 266.119 256.561 265.945 256.109 265.595C255.658 265.243 255.313 264.733 255.074 264.065C254.835 263.395 254.716 262.585 254.716 261.636C254.716 260.693 254.835 259.888 255.074 259.22C255.315 258.55 255.662 258.038 256.114 257.686C256.568 257.331 257.114 257.153 257.75 257.153C258.386 257.153 258.93 257.331 259.382 257.686C259.837 258.038 260.183 258.55 260.422 259.22C260.663 259.888 260.784 260.693 260.784 261.636C260.784 262.585 260.665 263.395 260.426 264.065C260.188 264.733 259.842 265.243 259.391 265.595C258.939 265.945 258.392 266.119 257.75 266.119ZM257.75 265.182C258.386 265.182 258.881 264.875 259.233 264.261C259.585 263.648 259.761 262.773 259.761 261.636C259.761 260.881 259.68 260.237 259.518 259.706C259.359 259.175 259.129 258.77 258.828 258.491C258.53 258.213 258.17 258.074 257.75 258.074C257.119 258.074 256.626 258.385 256.271 259.007C255.916 259.626 255.739 260.503 255.739 261.636C255.739 262.392 255.818 263.034 255.977 263.562C256.136 264.091 256.365 264.493 256.663 264.768C256.964 265.044 257.327 265.182 257.75 265.182Z" fill="#C688D6"/>
<path d="M271.307 4.27273H272.517L274.938 8.34659H275.04L277.46 4.27273H278.67L275.517 9.40341V13H274.46V9.40341L271.307 4.27273Z" fill="#80B3D8"/>
<path d="M489.568 221.273L491.818 224.903H491.886L494.136 221.273H495.381L492.636 225.636L495.381 230H494.136L491.886 226.438H491.818L489.568 230H488.324L491.136 225.636L488.324 221.273H489.568Z" fill="#D88080"/>
<path d="M275.972 227.273V236H274.915V228.381H274.864L272.733 229.795V228.722L274.915 227.273H275.972Z" fill="#D88080"/>
<path d="M296.903 236V235.233L299.784 232.08C300.122 231.71 300.401 231.389 300.619 231.116C300.838 230.841 301 230.582 301.105 230.341C301.213 230.097 301.267 229.841 301.267 229.574C301.267 229.267 301.193 229.001 301.045 228.777C300.901 228.553 300.702 228.379 300.449 228.257C300.196 228.135 299.912 228.074 299.597 228.074C299.261 228.074 298.969 228.143 298.719 228.283C298.472 228.419 298.28 228.611 298.143 228.858C298.01 229.105 297.943 229.395 297.943 229.727H296.938C296.938 229.216 297.055 228.767 297.291 228.381C297.527 227.994 297.848 227.693 298.254 227.477C298.663 227.261 299.122 227.153 299.631 227.153C300.142 227.153 300.595 227.261 300.99 227.477C301.385 227.693 301.695 227.984 301.919 228.351C302.143 228.717 302.256 229.125 302.256 229.574C302.256 229.895 302.197 230.209 302.081 230.516C301.967 230.82 301.768 231.159 301.484 231.534C301.203 231.906 300.812 232.361 300.312 232.898L298.352 234.994V235.062H302.409V236H296.903Z" fill="#D88080"/>
<path d="M324.852 236.119C324.29 236.119 323.788 236.023 323.348 235.83C322.911 235.636 322.563 235.368 322.304 235.024C322.048 234.678 321.909 234.276 321.886 233.818H322.96C322.983 234.099 323.08 234.342 323.25 234.547C323.42 234.749 323.643 234.905 323.919 235.016C324.195 235.126 324.5 235.182 324.835 235.182C325.21 235.182 325.543 235.116 325.832 234.986C326.122 234.855 326.349 234.673 326.514 234.44C326.679 234.207 326.761 233.938 326.761 233.631C326.761 233.31 326.682 233.027 326.523 232.783C326.364 232.536 326.131 232.342 325.824 232.203C325.517 232.064 325.142 231.994 324.699 231.994H324V231.057H324.699C325.045 231.057 325.349 230.994 325.611 230.869C325.875 230.744 326.081 230.568 326.229 230.341C326.379 230.114 326.455 229.847 326.455 229.54C326.455 229.244 326.389 228.987 326.259 228.768C326.128 228.55 325.943 228.379 325.705 228.257C325.469 228.135 325.19 228.074 324.869 228.074C324.568 228.074 324.284 228.129 324.017 228.24C323.753 228.348 323.537 228.506 323.369 228.713C323.202 228.918 323.111 229.165 323.097 229.455H322.074C322.091 228.997 322.229 228.597 322.487 228.253C322.746 227.906 323.084 227.636 323.501 227.443C323.922 227.25 324.384 227.153 324.886 227.153C325.426 227.153 325.889 227.263 326.276 227.482C326.662 227.697 326.959 227.983 327.166 228.338C327.374 228.693 327.477 229.077 327.477 229.489C327.477 229.98 327.348 230.399 327.089 230.746C326.834 231.092 326.486 231.332 326.045 231.466V231.534C326.597 231.625 327.027 231.859 327.337 232.237C327.646 232.612 327.801 233.077 327.801 233.631C327.801 234.105 327.672 234.531 327.413 234.909C327.158 235.284 326.808 235.58 326.365 235.795C325.922 236.011 325.418 236.119 324.852 236.119Z" fill="#D88080"/>
<path d="M346.699 234.21V233.341L350.534 227.273H351.165V228.619H350.739L347.841 233.205V233.273H353.006V234.21H346.699ZM350.807 236V233.946V233.541V227.273H351.812V236H350.807Z" fill="#D88080"/>
<path d="M374.631 236.119C374.131 236.119 373.68 236.02 373.28 235.821C372.879 235.622 372.558 235.349 372.317 235.003C372.075 234.656 371.943 234.261 371.92 233.818H372.943C372.983 234.213 373.162 234.54 373.48 234.798C373.801 235.054 374.185 235.182 374.631 235.182C374.989 235.182 375.307 235.098 375.585 234.93C375.866 234.763 376.087 234.533 376.246 234.24C376.408 233.945 376.489 233.611 376.489 233.239C376.489 232.858 376.405 232.518 376.237 232.22C376.072 231.919 375.845 231.682 375.555 231.509C375.266 231.335 374.935 231.247 374.562 231.244C374.295 231.241 374.021 231.283 373.74 231.368C373.459 231.45 373.227 231.557 373.045 231.688L372.057 231.568L372.585 227.273H377.119V228.21H373.472L373.165 230.784H373.216C373.395 230.642 373.619 230.524 373.889 230.43C374.159 230.337 374.44 230.29 374.733 230.29C375.267 230.29 375.743 230.418 376.161 230.673C376.581 230.926 376.911 231.273 377.149 231.713C377.391 232.153 377.511 232.656 377.511 233.222C377.511 233.778 377.386 234.276 377.136 234.713C376.889 235.148 376.548 235.491 376.114 235.744C375.679 235.994 375.185 236.119 374.631 236.119Z" fill="#D88080"/>
<path d="M399.801 236.119C399.443 236.114 399.085 236.045 398.727 235.915C398.369 235.784 398.043 235.564 397.747 235.254C397.452 234.942 397.214 234.52 397.036 233.989C396.857 233.455 396.767 232.784 396.767 231.977C396.767 231.205 396.839 230.52 396.984 229.923C397.129 229.324 397.339 228.82 397.615 228.411C397.891 227.999 398.223 227.686 398.612 227.473C399.004 227.26 399.446 227.153 399.938 227.153C400.426 227.153 400.861 227.251 401.241 227.447C401.625 227.641 401.938 227.911 402.179 228.257C402.42 228.604 402.577 229.003 402.648 229.455H401.608C401.511 229.062 401.324 228.737 401.045 228.479C400.767 228.22 400.398 228.091 399.938 228.091C399.261 228.091 398.729 228.385 398.339 228.973C397.953 229.561 397.759 230.386 397.756 231.449H397.824C397.983 231.207 398.172 231.001 398.391 230.831C398.612 230.658 398.857 230.524 399.124 230.43C399.391 230.337 399.673 230.29 399.972 230.29C400.472 230.29 400.929 230.415 401.344 230.665C401.759 230.912 402.091 231.254 402.341 231.692C402.591 232.126 402.716 232.625 402.716 233.188C402.716 233.727 402.595 234.222 402.354 234.67C402.112 235.116 401.773 235.472 401.335 235.736C400.901 235.997 400.389 236.125 399.801 236.119ZM399.801 235.182C400.159 235.182 400.48 235.092 400.764 234.913C401.051 234.734 401.277 234.494 401.442 234.193C401.609 233.892 401.693 233.557 401.693 233.188C401.693 232.827 401.612 232.499 401.45 232.203C401.291 231.905 401.071 231.668 400.79 231.491C400.511 231.315 400.193 231.227 399.835 231.227C399.565 231.227 399.314 231.281 399.081 231.389C398.848 231.494 398.643 231.639 398.467 231.824C398.294 232.009 398.158 232.22 398.058 232.459C397.959 232.695 397.909 232.943 397.909 233.205C397.909 233.551 397.99 233.875 398.152 234.176C398.317 234.477 398.541 234.72 398.825 234.905C399.112 235.089 399.438 235.182 399.801 235.182Z" fill="#D88080"/>
<path d="M423.176 236L427.08 228.278V228.21H422.58V227.273H428.17V228.261L424.284 236H423.176Z" fill="#D88080"/>
<path d="M449.699 236.119C449.114 236.119 448.597 236.016 448.148 235.808C447.702 235.598 447.354 235.31 447.104 234.943C446.854 234.574 446.73 234.153 446.733 233.682C446.73 233.312 446.803 232.972 446.95 232.659C447.098 232.344 447.3 232.081 447.555 231.871C447.814 231.658 448.102 231.523 448.42 231.466V231.415C448.003 231.307 447.67 231.072 447.423 230.712C447.176 230.348 447.054 229.935 447.057 229.472C447.054 229.028 447.166 228.632 447.393 228.283C447.621 227.933 447.933 227.658 448.331 227.456C448.732 227.254 449.188 227.153 449.699 227.153C450.205 227.153 450.656 227.254 451.054 227.456C451.452 227.658 451.764 227.933 451.991 228.283C452.222 228.632 452.338 229.028 452.341 229.472C452.338 229.935 452.212 230.348 451.962 230.712C451.714 231.072 451.386 231.307 450.977 231.415V231.466C451.293 231.523 451.577 231.658 451.83 231.871C452.082 232.081 452.284 232.344 452.435 232.659C452.585 232.972 452.662 233.312 452.665 233.682C452.662 234.153 452.534 234.574 452.281 234.943C452.031 235.31 451.683 235.598 451.237 235.808C450.794 236.016 450.281 236.119 449.699 236.119ZM449.699 235.182C450.094 235.182 450.435 235.118 450.722 234.99C451.009 234.862 451.23 234.682 451.386 234.449C451.543 234.216 451.622 233.943 451.625 233.631C451.622 233.301 451.537 233.01 451.369 232.757C451.202 232.504 450.973 232.305 450.683 232.161C450.396 232.016 450.068 231.943 449.699 231.943C449.327 231.943 448.994 232.016 448.702 232.161C448.412 232.305 448.183 232.504 448.016 232.757C447.851 233.01 447.77 233.301 447.773 233.631C447.77 233.943 447.845 234.216 447.999 234.449C448.155 234.682 448.378 234.862 448.668 234.99C448.957 235.118 449.301 235.182 449.699 235.182ZM449.699 231.04C450.011 231.04 450.288 230.977 450.53 230.852C450.774 230.727 450.966 230.553 451.105 230.328C451.244 230.104 451.315 229.841 451.318 229.54C451.315 229.244 451.246 228.987 451.109 228.768C450.973 228.547 450.784 228.376 450.543 228.257C450.301 228.135 450.02 228.074 449.699 228.074C449.372 228.074 449.087 228.135 448.842 228.257C448.598 228.376 448.409 228.547 448.276 228.768C448.142 228.987 448.077 229.244 448.08 229.54C448.077 229.841 448.143 230.104 448.28 230.328C448.419 230.553 448.611 230.727 448.855 230.852C449.099 230.977 449.381 231.04 449.699 231.04Z" fill="#D88080"/>
<path d="M474.682 227.153C475.04 227.156 475.398 227.224 475.756 227.358C476.114 227.491 476.44 227.713 476.736 228.023C477.031 228.33 477.268 228.749 477.447 229.28C477.626 229.811 477.716 230.477 477.716 231.278C477.716 232.054 477.642 232.743 477.494 233.345C477.349 233.945 477.139 234.45 476.864 234.862C476.591 235.274 476.259 235.587 475.866 235.8C475.477 236.013 475.037 236.119 474.545 236.119C474.057 236.119 473.621 236.023 473.237 235.83C472.857 235.634 472.544 235.362 472.3 235.016C472.058 234.666 471.903 234.261 471.835 233.801H472.875C472.969 234.202 473.155 234.533 473.433 234.794C473.714 235.053 474.085 235.182 474.545 235.182C475.219 235.182 475.75 234.888 476.139 234.3C476.531 233.712 476.727 232.881 476.727 231.807H476.659C476.5 232.045 476.311 232.251 476.092 232.425C475.874 232.598 475.631 232.732 475.364 232.825C475.097 232.919 474.813 232.966 474.511 232.966C474.011 232.966 473.553 232.842 473.135 232.595C472.72 232.345 472.388 232.003 472.138 231.568C471.891 231.131 471.767 230.631 471.767 230.068C471.767 229.534 471.886 229.045 472.125 228.602C472.366 228.156 472.705 227.801 473.139 227.537C473.577 227.273 474.091 227.145 474.682 227.153ZM474.682 228.091C474.324 228.091 474.001 228.18 473.714 228.359C473.43 228.536 473.205 228.774 473.037 229.075C472.872 229.374 472.79 229.705 472.79 230.068C472.79 230.432 472.869 230.763 473.028 231.061C473.19 231.357 473.411 231.592 473.689 231.768C473.97 231.942 474.29 232.028 474.648 232.028C474.918 232.028 475.169 231.976 475.402 231.871C475.635 231.763 475.838 231.616 476.011 231.432C476.188 231.244 476.325 231.033 476.425 230.797C476.524 230.558 476.574 230.31 476.574 230.051C476.574 229.71 476.491 229.391 476.327 229.092C476.165 228.794 475.94 228.553 475.653 228.368C475.369 228.183 475.045 228.091 474.682 228.091Z" fill="#D88080"/>
<path d="M264.972 221.273V230H263.915V222.381H263.864L261.733 223.795V222.722L263.915 221.273H264.972Z" fill="#80B3D8"/>
<path d="M261.903 205V204.233L264.784 201.08C265.122 200.71 265.401 200.389 265.619 200.116C265.838 199.841 266 199.582 266.105 199.341C266.213 199.097 266.267 198.841 266.267 198.574C266.267 198.267 266.193 198.001 266.045 197.777C265.901 197.553 265.702 197.379 265.449 197.257C265.196 197.135 264.912 197.074 264.597 197.074C264.261 197.074 263.969 197.143 263.719 197.283C263.472 197.419 263.28 197.611 263.143 197.858C263.01 198.105 262.943 198.395 262.943 198.727H261.938C261.938 198.216 262.055 197.767 262.291 197.381C262.527 196.994 262.848 196.693 263.254 196.477C263.663 196.261 264.122 196.153 264.631 196.153C265.142 196.153 265.595 196.261 265.99 196.477C266.385 196.693 266.695 196.984 266.919 197.351C267.143 197.717 267.256 198.125 267.256 198.574C267.256 198.895 267.197 199.209 267.081 199.516C266.967 199.82 266.768 200.159 266.484 200.534C266.203 200.906 265.812 201.361 265.312 201.898L263.352 203.994V204.062H267.409V205H261.903Z" fill="#80B3D8"/>
<path d="M264.852 180.119C264.29 180.119 263.788 180.023 263.348 179.83C262.911 179.636 262.563 179.368 262.304 179.024C262.048 178.678 261.909 178.276 261.886 177.818H262.96C262.983 178.099 263.08 178.342 263.25 178.547C263.42 178.749 263.643 178.905 263.919 179.016C264.195 179.126 264.5 179.182 264.835 179.182C265.21 179.182 265.543 179.116 265.832 178.986C266.122 178.855 266.349 178.673 266.514 178.44C266.679 178.207 266.761 177.938 266.761 177.631C266.761 177.31 266.682 177.027 266.523 176.783C266.364 176.536 266.131 176.342 265.824 176.203C265.517 176.064 265.142 175.994 264.699 175.994H264V175.057H264.699C265.045 175.057 265.349 174.994 265.611 174.869C265.875 174.744 266.081 174.568 266.229 174.341C266.379 174.114 266.455 173.847 266.455 173.54C266.455 173.244 266.389 172.987 266.259 172.768C266.128 172.55 265.943 172.379 265.705 172.257C265.469 172.135 265.19 172.074 264.869 172.074C264.568 172.074 264.284 172.129 264.017 172.24C263.753 172.348 263.537 172.506 263.369 172.713C263.202 172.918 263.111 173.165 263.097 173.455H262.074C262.091 172.997 262.229 172.597 262.487 172.253C262.746 171.906 263.084 171.636 263.501 171.443C263.922 171.25 264.384 171.153 264.886 171.153C265.426 171.153 265.889 171.263 266.276 171.482C266.662 171.697 266.959 171.983 267.166 172.338C267.374 172.693 267.477 173.077 267.477 173.489C267.477 173.98 267.348 174.399 267.089 174.746C266.834 175.092 266.486 175.332 266.045 175.466V175.534C266.597 175.625 267.027 175.859 267.337 176.237C267.646 176.612 267.801 177.077 267.801 177.631C267.801 178.105 267.672 178.531 267.413 178.909C267.158 179.284 266.808 179.58 266.365 179.795C265.922 180.011 265.418 180.119 264.852 180.119Z" fill="#80B3D8"/>
<path d="M261.699 153.21V152.341L265.534 146.273H266.165V147.619H265.739L262.841 152.205V152.273H268.006V153.21H261.699ZM265.807 155V152.946V152.541V146.273H266.812V155H265.807Z" fill="#80B3D8"/>
<path d="M264.631 130.119C264.131 130.119 263.68 130.02 263.28 129.821C262.879 129.622 262.558 129.349 262.317 129.003C262.075 128.656 261.943 128.261 261.92 127.818H262.943C262.983 128.213 263.162 128.54 263.48 128.798C263.801 129.054 264.185 129.182 264.631 129.182C264.989 129.182 265.307 129.098 265.585 128.93C265.866 128.763 266.087 128.533 266.246 128.24C266.408 127.945 266.489 127.611 266.489 127.239C266.489 126.858 266.405 126.518 266.237 126.22C266.072 125.919 265.845 125.682 265.555 125.509C265.266 125.335 264.935 125.247 264.562 125.244C264.295 125.241 264.021 125.283 263.74 125.368C263.459 125.45 263.227 125.557 263.045 125.688L262.057 125.568L262.585 121.273H267.119V122.21H263.472L263.165 124.784H263.216C263.395 124.642 263.619 124.524 263.889 124.43C264.159 124.337 264.44 124.29 264.733 124.29C265.267 124.29 265.743 124.418 266.161 124.673C266.581 124.926 266.911 125.273 267.149 125.713C267.391 126.153 267.511 126.656 267.511 127.222C267.511 127.778 267.386 128.276 267.136 128.713C266.889 129.148 266.548 129.491 266.114 129.744C265.679 129.994 265.185 130.119 264.631 130.119Z" fill="#80B3D8"/>
<path d="M264.801 105.119C264.443 105.114 264.085 105.045 263.727 104.915C263.369 104.784 263.043 104.564 262.747 104.254C262.452 103.942 262.214 103.52 262.036 102.989C261.857 102.455 261.767 101.784 261.767 100.977C261.767 100.205 261.839 99.5199 261.984 98.9233C262.129 98.3239 262.339 97.8196 262.615 97.4105C262.891 96.9986 263.223 96.6861 263.612 96.473C264.004 96.2599 264.446 96.1534 264.938 96.1534C265.426 96.1534 265.861 96.2514 266.241 96.4474C266.625 96.6406 266.938 96.9105 267.179 97.2571C267.42 97.6037 267.577 98.0028 267.648 98.4545H266.608C266.511 98.0625 266.324 97.7372 266.045 97.4787C265.767 97.2202 265.398 97.0909 264.938 97.0909C264.261 97.0909 263.729 97.3849 263.339 97.973C262.953 98.5611 262.759 99.3864 262.756 100.449H262.824C262.983 100.207 263.172 100.001 263.391 99.831C263.612 99.6577 263.857 99.5241 264.124 99.4304C264.391 99.3366 264.673 99.2898 264.972 99.2898C265.472 99.2898 265.929 99.4148 266.344 99.6648C266.759 99.9119 267.091 100.254 267.341 100.692C267.591 101.126 267.716 101.625 267.716 102.188C267.716 102.727 267.595 103.222 267.354 103.67C267.112 104.116 266.773 104.472 266.335 104.736C265.901 104.997 265.389 105.125 264.801 105.119ZM264.801 104.182C265.159 104.182 265.48 104.092 265.764 103.913C266.051 103.734 266.277 103.494 266.442 103.193C266.609 102.892 266.693 102.557 266.693 102.188C266.693 101.827 266.612 101.499 266.45 101.203C266.291 100.905 266.071 100.668 265.79 100.491C265.511 100.315 265.193 100.227 264.835 100.227C264.565 100.227 264.314 100.281 264.081 100.389C263.848 100.494 263.643 100.639 263.467 100.824C263.294 101.009 263.158 101.22 263.058 101.459C262.959 101.695 262.909 101.943 262.909 102.205C262.909 102.551 262.99 102.875 263.152 103.176C263.317 103.477 263.541 103.72 263.825 103.905C264.112 104.089 264.438 104.182 264.801 104.182Z" fill="#80B3D8"/>
<path d="M262.176 80L266.08 72.2784V72.2102H261.58V71.2727H267.17V72.2614L263.284 80H262.176Z" fill="#80B3D8"/>
<path d="M264.699 55.1193C264.114 55.1193 263.597 55.0156 263.148 54.8082C262.702 54.598 262.354 54.3097 262.104 53.9432C261.854 53.5739 261.73 53.1534 261.733 52.6818C261.73 52.3125 261.803 51.9716 261.95 51.6591C262.098 51.3437 262.3 51.081 262.555 50.8707C262.814 50.6577 263.102 50.5227 263.42 50.4659V50.4148C263.003 50.3068 262.67 50.0724 262.423 49.7116C262.176 49.348 262.054 48.9347 262.057 48.4716C262.054 48.0284 262.166 47.6321 262.393 47.2827C262.621 46.9332 262.933 46.6577 263.331 46.456C263.732 46.2543 264.188 46.1534 264.699 46.1534C265.205 46.1534 265.656 46.2543 266.054 46.456C266.452 46.6577 266.764 46.9332 266.991 47.2827C267.222 47.6321 267.338 48.0284 267.341 48.4716C267.338 48.9347 267.212 49.348 266.962 49.7116C266.714 50.0724 266.386 50.3068 265.977 50.4148V50.4659C266.293 50.5227 266.577 50.6577 266.83 50.8707C267.082 51.081 267.284 51.3437 267.435 51.6591C267.585 51.9716 267.662 52.3125 267.665 52.6818C267.662 53.1534 267.534 53.5739 267.281 53.9432C267.031 54.3097 266.683 54.598 266.237 54.8082C265.794 55.0156 265.281 55.1193 264.699 55.1193ZM264.699 54.1818C265.094 54.1818 265.435 54.1179 265.722 53.9901C266.009 53.8622 266.23 53.6818 266.386 53.4489C266.543 53.2159 266.622 52.9432 266.625 52.6307C266.622 52.3011 266.537 52.0099 266.369 51.7571C266.202 51.5043 265.973 51.3054 265.683 51.1605C265.396 51.0156 265.068 50.9432 264.699 50.9432C264.327 50.9432 263.994 51.0156 263.702 51.1605C263.412 51.3054 263.183 51.5043 263.016 51.7571C262.851 52.0099 262.77 52.3011 262.773 52.6307C262.77 52.9432 262.845 53.2159 262.999 53.4489C263.155 53.6818 263.378 53.8622 263.668 53.9901C263.957 54.1179 264.301 54.1818 264.699 54.1818ZM264.699 50.0398C265.011 50.0398 265.288 49.9773 265.53 49.8523C265.774 49.7273 265.966 49.5526 266.105 49.3281C266.244 49.1037 266.315 48.8409 266.318 48.5398C266.315 48.2443 266.246 47.9872 266.109 47.7685C265.973 47.5469 265.784 47.3764 265.543 47.2571C265.301 47.1349 265.02 47.0739 264.699 47.0739C264.372 47.0739 264.087 47.1349 263.842 47.2571C263.598 47.3764 263.409 47.5469 263.276 47.7685C263.142 47.9872 263.077 48.2443 263.08 48.5398C263.077 48.8409 263.143 49.1037 263.28 49.3281C263.419 49.5526 263.611 49.7273 263.855 49.8523C264.099 49.9773 264.381 50.0398 264.699 50.0398Z" fill="#80B3D8"/>
<path d="M264.682 21.1534C265.04 21.1562 265.398 21.2244 265.756 21.358C266.114 21.4915 266.44 21.7131 266.736 22.0227C267.031 22.3295 267.268 22.7486 267.447 23.2798C267.626 23.8111 267.716 24.4773 267.716 25.2784C267.716 26.054 267.642 26.7429 267.494 27.3452C267.349 27.9446 267.139 28.4503 266.864 28.8622C266.591 29.2741 266.259 29.5866 265.866 29.7997C265.477 30.0128 265.037 30.1193 264.545 30.1193C264.057 30.1193 263.621 30.0227 263.237 29.8295C262.857 29.6335 262.544 29.3622 262.3 29.0156C262.058 28.6662 261.903 28.2614 261.835 27.8011H262.875C262.969 28.2017 263.155 28.5327 263.433 28.794C263.714 29.0526 264.085 29.1818 264.545 29.1818C265.219 29.1818 265.75 28.8878 266.139 28.2997C266.531 27.7116 266.727 26.8807 266.727 25.8068H266.659C266.5 26.0455 266.311 26.2514 266.092 26.4247C265.874 26.598 265.631 26.7315 265.364 26.8253C265.097 26.919 264.813 26.9659 264.511 26.9659C264.011 26.9659 263.553 26.8423 263.135 26.5952C262.72 26.3452 262.388 26.0028 262.138 25.5682C261.891 25.1307 261.767 24.6307 261.767 24.0682C261.767 23.5341 261.886 23.0455 262.125 22.6023C262.366 22.1562 262.705 21.8011 263.139 21.5369C263.577 21.2727 264.091 21.1449 264.682 21.1534ZM264.682 22.0909C264.324 22.0909 264.001 22.1804 263.714 22.3594C263.43 22.5355 263.205 22.7741 263.037 23.0753C262.872 23.3736 262.79 23.7045 262.79 24.0682C262.79 24.4318 262.869 24.7628 263.028 25.0611C263.19 25.3565 263.411 25.5923 263.689 25.7685C263.97 25.9418 264.29 26.0284 264.648 26.0284C264.918 26.0284 265.169 25.9759 265.402 25.8707C265.635 25.7628 265.838 25.6165 266.011 25.4318C266.188 25.2443 266.325 25.0327 266.425 24.7969C266.524 24.5582 266.574 24.3097 266.574 24.0511C266.574 23.7102 266.491 23.3906 266.327 23.0923C266.165 22.794 265.94 22.5526 265.653 22.3679C265.369 22.1832 265.045 22.0909 264.682 22.0909Z" fill="#80B3D8"/>
<path d="M231.67 274.168V275.105H227.852V274.168H231.67ZM236.491 270.273V279H235.434V271.381H235.383L233.252 272.795V271.722L235.434 270.273H236.491Z" fill="#80B3D8"/>
<path d="M230.67 299.168V300.105H226.852V299.168H230.67ZM232.013 304V303.233L234.893 300.08C235.232 299.71 235.51 299.389 235.729 299.116C235.947 298.841 236.109 298.582 236.214 298.341C236.322 298.097 236.376 297.841 236.376 297.574C236.376 297.267 236.303 297.001 236.155 296.777C236.01 296.553 235.811 296.379 235.558 296.257C235.305 296.135 235.021 296.074 234.706 296.074C234.371 296.074 234.078 296.143 233.828 296.283C233.581 296.419 233.389 296.611 233.253 296.858C233.119 297.105 233.053 297.395 233.053 297.727H232.047C232.047 297.216 232.165 296.767 232.401 296.381C232.636 295.994 232.957 295.693 233.364 295.477C233.773 295.261 234.232 295.153 234.74 295.153C235.251 295.153 235.705 295.261 236.099 295.477C236.494 295.693 236.804 295.984 237.028 296.351C237.253 296.717 237.365 297.125 237.365 297.574C237.365 297.895 237.307 298.209 237.19 298.516C237.077 298.82 236.878 299.159 236.594 299.534C236.312 299.906 235.922 300.361 235.422 300.898L233.462 302.994V303.062H237.518V304H232.013Z" fill="#80B3D8"/>
<path d="M229.67 324.168V325.105H225.852V324.168H229.67ZM234.231 329.119C233.669 329.119 233.167 329.023 232.727 328.83C232.289 328.636 231.941 328.368 231.683 328.024C231.427 327.678 231.288 327.276 231.265 326.818H232.339C232.362 327.099 232.458 327.342 232.629 327.547C232.799 327.749 233.022 327.905 233.298 328.016C233.574 328.126 233.879 328.182 234.214 328.182C234.589 328.182 234.922 328.116 235.211 327.986C235.501 327.855 235.728 327.673 235.893 327.44C236.058 327.207 236.14 326.938 236.14 326.631C236.14 326.31 236.061 326.027 235.902 325.783C235.743 325.536 235.51 325.342 235.203 325.203C234.896 325.064 234.521 324.994 234.078 324.994H233.379V324.057H234.078C234.424 324.057 234.728 323.994 234.99 323.869C235.254 323.744 235.46 323.568 235.608 323.341C235.758 323.114 235.833 322.847 235.833 322.54C235.833 322.244 235.768 321.987 235.637 321.768C235.507 321.55 235.322 321.379 235.083 321.257C234.848 321.135 234.569 321.074 234.248 321.074C233.947 321.074 233.663 321.129 233.396 321.24C233.132 321.348 232.916 321.506 232.748 321.713C232.581 321.918 232.49 322.165 232.475 322.455H231.453C231.47 321.997 231.608 321.597 231.866 321.253C232.125 320.906 232.463 320.636 232.88 320.443C233.301 320.25 233.762 320.153 234.265 320.153C234.805 320.153 235.268 320.263 235.654 320.482C236.041 320.697 236.338 320.983 236.545 321.338C236.752 321.693 236.856 322.077 236.856 322.489C236.856 322.98 236.727 323.399 236.468 323.746C236.213 324.092 235.865 324.332 235.424 324.466V324.534C235.975 324.625 236.406 324.859 236.716 325.237C237.025 325.612 237.18 326.077 237.18 326.631C237.18 327.105 237.051 327.531 236.792 327.909C236.537 328.284 236.187 328.58 235.744 328.795C235.301 329.011 234.797 329.119 234.231 329.119Z" fill="#80B3D8"/>
<path d="M229.67 349.168V350.105H225.852V349.168H229.67ZM231.218 352.21V351.341L235.054 345.273H235.684V346.619H235.258L232.36 351.205V351.273H237.525V352.21H231.218ZM235.326 354V351.946V351.541V345.273H236.332V354H235.326Z" fill="#80B3D8"/>
<path d="M230.67 374.168V375.105H226.852V374.168H230.67ZM235.15 379.119C234.65 379.119 234.2 379.02 233.799 378.821C233.399 378.622 233.078 378.349 232.836 378.003C232.595 377.656 232.463 377.261 232.44 376.818H233.463C233.502 377.213 233.681 377.54 234 377.798C234.321 378.054 234.704 378.182 235.15 378.182C235.508 378.182 235.826 378.098 236.105 377.93C236.386 377.763 236.606 377.533 236.765 377.24C236.927 376.945 237.008 376.611 237.008 376.239C237.008 375.858 236.924 375.518 236.757 375.22C236.592 374.919 236.365 374.682 236.075 374.509C235.785 374.335 235.454 374.247 235.082 374.244C234.815 374.241 234.541 374.283 234.26 374.368C233.978 374.45 233.747 374.557 233.565 374.688L232.576 374.568L233.105 370.273H237.639V371.21H233.991L233.684 373.784H233.735C233.914 373.642 234.139 373.524 234.409 373.43C234.679 373.337 234.96 373.29 235.252 373.29C235.787 373.29 236.262 373.418 236.68 373.673C237.1 373.926 237.43 374.273 237.669 374.713C237.91 375.153 238.031 375.656 238.031 376.222C238.031 376.778 237.906 377.276 237.656 377.713C237.409 378.148 237.068 378.491 236.633 378.744C236.199 378.994 235.704 379.119 235.15 379.119Z" fill="#80B3D8"/>
<path d="M229.67 399.168V400.105H225.852V399.168H229.67ZM234.321 404.119C233.963 404.114 233.605 404.045 233.247 403.915C232.889 403.784 232.562 403.564 232.267 403.254C231.971 402.942 231.734 402.52 231.555 401.989C231.376 401.455 231.287 400.784 231.287 399.977C231.287 399.205 231.359 398.52 231.504 397.923C231.649 397.324 231.859 396.82 232.135 396.411C232.41 395.999 232.743 395.686 233.132 395.473C233.524 395.26 233.966 395.153 234.457 395.153C234.946 395.153 235.38 395.251 235.761 395.447C236.145 395.641 236.457 395.911 236.699 396.257C236.94 396.604 237.096 397.003 237.167 397.455H236.127C236.031 397.062 235.843 396.737 235.565 396.479C235.287 396.22 234.917 396.091 234.457 396.091C233.781 396.091 233.248 396.385 232.859 396.973C232.473 397.561 232.278 398.386 232.275 399.449H232.343C232.502 399.207 232.691 399.001 232.91 398.831C233.132 398.658 233.376 398.524 233.643 398.43C233.91 398.337 234.193 398.29 234.491 398.29C234.991 398.29 235.449 398.415 235.863 398.665C236.278 398.912 236.61 399.254 236.86 399.692C237.11 400.126 237.235 400.625 237.235 401.188C237.235 401.727 237.115 402.222 236.873 402.67C236.632 403.116 236.292 403.472 235.855 403.736C235.42 403.997 234.909 404.125 234.321 404.119ZM234.321 403.182C234.679 403.182 235 403.092 235.284 402.913C235.571 402.734 235.797 402.494 235.961 402.193C236.129 401.892 236.213 401.557 236.213 401.188C236.213 400.827 236.132 400.499 235.97 400.203C235.811 399.905 235.591 399.668 235.309 399.491C235.031 399.315 234.713 399.227 234.355 399.227C234.085 399.227 233.833 399.281 233.6 399.389C233.368 399.494 233.163 399.639 232.987 399.824C232.814 400.009 232.677 400.22 232.578 400.459C232.478 400.695 232.429 400.943 232.429 401.205C232.429 401.551 232.51 401.875 232.672 402.176C232.836 402.477 233.061 402.72 233.345 402.905C233.632 403.089 233.957 403.182 234.321 403.182Z" fill="#80B3D8"/>
<path d="M230.67 424.168V425.105H226.852V424.168H230.67ZM232.426 429L236.33 421.278V421.21H231.83V420.273H237.42V421.261L233.534 429H232.426Z" fill="#80B3D8"/>
<path d="M230.67 449.168V450.105H226.852V449.168H230.67ZM235.218 454.119C234.633 454.119 234.116 454.016 233.667 453.808C233.221 453.598 232.873 453.31 232.623 452.943C232.373 452.574 232.25 452.153 232.252 451.682C232.25 451.312 232.322 450.972 232.47 450.659C232.618 450.344 232.819 450.081 233.075 449.871C233.333 449.658 233.622 449.523 233.94 449.466V449.415C233.522 449.307 233.19 449.072 232.943 448.712C232.696 448.348 232.574 447.935 232.576 447.472C232.574 447.028 232.686 446.632 232.913 446.283C233.14 445.933 233.453 445.658 233.85 445.456C234.251 445.254 234.707 445.153 235.218 445.153C235.724 445.153 236.176 445.254 236.574 445.456C236.971 445.658 237.284 445.933 237.511 446.283C237.741 446.632 237.858 447.028 237.86 447.472C237.858 447.935 237.731 448.348 237.481 448.712C237.234 449.072 236.906 449.307 236.497 449.415V449.466C236.812 449.523 237.096 449.658 237.349 449.871C237.602 450.081 237.804 450.344 237.954 450.659C238.105 450.972 238.181 451.312 238.184 451.682C238.181 452.153 238.054 452.574 237.801 452.943C237.551 453.31 237.203 453.598 236.757 453.808C236.314 454.016 235.801 454.119 235.218 454.119ZM235.218 453.182C235.613 453.182 235.954 453.118 236.241 452.99C236.528 452.862 236.75 452.682 236.906 452.449C237.062 452.216 237.142 451.943 237.145 451.631C237.142 451.301 237.056 451.01 236.889 450.757C236.721 450.504 236.493 450.305 236.203 450.161C235.916 450.016 235.588 449.943 235.218 449.943C234.846 449.943 234.514 450.016 234.221 450.161C233.931 450.305 233.703 450.504 233.535 450.757C233.37 451.01 233.289 451.301 233.292 451.631C233.289 451.943 233.365 452.216 233.518 452.449C233.674 452.682 233.897 452.862 234.187 452.99C234.477 453.118 234.821 453.182 235.218 453.182ZM235.218 449.04C235.531 449.04 235.808 448.977 236.049 448.852C236.294 448.727 236.485 448.553 236.625 448.328C236.764 448.104 236.835 447.841 236.838 447.54C236.835 447.244 236.765 446.987 236.629 446.768C236.493 446.547 236.304 446.376 236.062 446.257C235.821 446.135 235.539 446.074 235.218 446.074C234.892 446.074 234.606 446.135 234.362 446.257C234.118 446.376 233.929 446.547 233.795 446.768C233.662 446.987 233.596 447.244 233.599 447.54C233.596 447.841 233.663 448.104 233.799 448.328C233.939 448.553 234.13 448.727 234.375 448.852C234.619 448.977 234.9 449.04 235.218 449.04Z" fill="#80B3D8"/>
<path d="M229.67 474.168V475.105H225.852V474.168H229.67ZM234.201 470.153C234.559 470.156 234.917 470.224 235.275 470.358C235.633 470.491 235.96 470.713 236.255 471.023C236.551 471.33 236.788 471.749 236.967 472.28C237.146 472.811 237.235 473.477 237.235 474.278C237.235 475.054 237.162 475.743 237.014 476.345C236.869 476.945 236.659 477.45 236.383 477.862C236.11 478.274 235.778 478.587 235.386 478.8C234.997 479.013 234.556 479.119 234.065 479.119C233.576 479.119 233.14 479.023 232.757 478.83C232.376 478.634 232.064 478.362 231.819 478.016C231.578 477.666 231.423 477.261 231.355 476.801H232.395C232.488 477.202 232.674 477.533 232.953 477.794C233.234 478.053 233.605 478.182 234.065 478.182C234.738 478.182 235.27 477.888 235.659 477.3C236.051 476.712 236.247 475.881 236.247 474.807H236.179C236.02 475.045 235.831 475.251 235.612 475.425C235.393 475.598 235.15 475.732 234.883 475.825C234.616 475.919 234.332 475.966 234.031 475.966C233.531 475.966 233.072 475.842 232.654 475.595C232.24 475.345 231.907 475.003 231.657 474.568C231.41 474.131 231.287 473.631 231.287 473.068C231.287 472.534 231.406 472.045 231.645 471.602C231.886 471.156 232.224 470.801 232.659 470.537C233.096 470.273 233.61 470.145 234.201 470.153ZM234.201 471.091C233.843 471.091 233.521 471.18 233.234 471.359C232.95 471.536 232.724 471.774 232.556 472.075C232.392 472.374 232.309 472.705 232.309 473.068C232.309 473.432 232.389 473.763 232.548 474.061C232.71 474.357 232.93 474.592 233.208 474.768C233.49 474.942 233.809 475.028 234.167 475.028C234.437 475.028 234.689 474.976 234.922 474.871C235.154 474.763 235.358 474.616 235.531 474.432C235.707 474.244 235.845 474.033 235.944 473.797C236.044 473.558 236.093 473.31 236.093 473.051C236.093 472.71 236.011 472.391 235.846 472.092C235.684 471.794 235.46 471.553 235.173 471.368C234.889 471.183 234.565 471.091 234.201 471.091Z" fill="#80B3D8"/>
<path d="M223.67 267.168V268.105H219.852V267.168H223.67ZM228.491 263.273V272H227.434V264.381H227.383L225.252 265.795V264.722L227.434 263.273H228.491Z" fill="#D88080"/>
<path d="M198.67 267.168V268.105H194.852V267.168H198.67ZM200.013 272V271.233L202.893 268.08C203.232 267.71 203.51 267.389 203.729 267.116C203.947 266.841 204.109 266.582 204.214 266.341C204.322 266.097 204.376 265.841 204.376 265.574C204.376 265.267 204.303 265.001 204.155 264.777C204.01 264.553 203.811 264.379 203.558 264.257C203.305 264.135 203.021 264.074 202.706 264.074C202.371 264.074 202.078 264.143 201.828 264.283C201.581 264.419 201.389 264.611 201.253 264.858C201.119 265.105 201.053 265.395 201.053 265.727H200.047C200.047 265.216 200.165 264.767 200.401 264.381C200.636 263.994 200.957 263.693 201.364 263.477C201.773 263.261 202.232 263.153 202.74 263.153C203.251 263.153 203.705 263.261 204.099 263.477C204.494 263.693 204.804 263.984 205.028 264.351C205.253 264.717 205.365 265.125 205.365 265.574C205.365 265.895 205.307 266.209 205.19 266.516C205.077 266.82 204.878 267.159 204.594 267.534C204.312 267.906 203.922 268.361 203.422 268.898L201.462 270.994V271.062H205.518V272H200.013Z" fill="#D88080"/>
<path d="M172.67 267.168V268.105H168.852V267.168H172.67ZM177.231 272.119C176.669 272.119 176.167 272.023 175.727 271.83C175.289 271.636 174.941 271.368 174.683 271.024C174.427 270.678 174.288 270.276 174.265 269.818H175.339C175.362 270.099 175.458 270.342 175.629 270.547C175.799 270.749 176.022 270.905 176.298 271.016C176.574 271.126 176.879 271.182 177.214 271.182C177.589 271.182 177.922 271.116 178.211 270.986C178.501 270.855 178.728 270.673 178.893 270.44C179.058 270.207 179.14 269.938 179.14 269.631C179.14 269.31 179.061 269.027 178.902 268.783C178.743 268.536 178.51 268.342 178.203 268.203C177.896 268.064 177.521 267.994 177.078 267.994H176.379V267.057H177.078C177.424 267.057 177.728 266.994 177.99 266.869C178.254 266.744 178.46 266.568 178.608 266.341C178.758 266.114 178.833 265.847 178.833 265.54C178.833 265.244 178.768 264.987 178.637 264.768C178.507 264.55 178.322 264.379 178.083 264.257C177.848 264.135 177.569 264.074 177.248 264.074C176.947 264.074 176.663 264.129 176.396 264.24C176.132 264.348 175.916 264.506 175.748 264.713C175.581 264.918 175.49 265.165 175.475 265.455H174.453C174.47 264.997 174.608 264.597 174.866 264.253C175.125 263.906 175.463 263.636 175.88 263.443C176.301 263.25 176.762 263.153 177.265 263.153C177.805 263.153 178.268 263.263 178.654 263.482C179.041 263.697 179.338 263.983 179.545 264.338C179.752 264.693 179.856 265.077 179.856 265.489C179.856 265.98 179.727 266.399 179.468 266.746C179.213 267.092 178.865 267.332 178.424 267.466V267.534C178.975 267.625 179.406 267.859 179.716 268.237C180.025 268.612 180.18 269.077 180.18 269.631C180.18 270.105 180.051 270.531 179.792 270.909C179.537 271.284 179.187 271.58 178.744 271.795C178.301 272.011 177.797 272.119 177.231 272.119Z" fill="#D88080"/>
<path d="M147.67 267.168V268.105H143.852V267.168H147.67ZM149.218 270.21V269.341L153.054 263.273H153.684V264.619H153.258L150.36 269.205V269.273H155.525V270.21H149.218ZM153.326 272V269.946V269.541V263.273H154.332V272H153.326Z" fill="#D88080"/>
<path d="M123.67 267.168V268.105H119.852V267.168H123.67ZM128.15 272.119C127.65 272.119 127.2 272.02 126.799 271.821C126.399 271.622 126.078 271.349 125.836 271.003C125.595 270.656 125.463 270.261 125.44 269.818H126.463C126.502 270.213 126.681 270.54 127 270.798C127.321 271.054 127.704 271.182 128.15 271.182C128.508 271.182 128.826 271.098 129.105 270.93C129.386 270.763 129.606 270.533 129.765 270.24C129.927 269.945 130.008 269.611 130.008 269.239C130.008 268.858 129.924 268.518 129.757 268.22C129.592 267.919 129.365 267.682 129.075 267.509C128.785 267.335 128.454 267.247 128.082 267.244C127.815 267.241 127.541 267.283 127.26 267.368C126.978 267.45 126.747 267.557 126.565 267.688L125.576 267.568L126.105 263.273H130.639V264.21H126.991L126.684 266.784H126.735C126.914 266.642 127.139 266.524 127.409 266.43C127.679 266.337 127.96 266.29 128.252 266.29C128.787 266.29 129.262 266.418 129.68 266.673C130.1 266.926 130.43 267.273 130.669 267.713C130.91 268.153 131.031 268.656 131.031 269.222C131.031 269.778 130.906 270.276 130.656 270.713C130.409 271.148 130.068 271.491 129.633 271.744C129.199 271.994 128.704 272.119 128.15 272.119Z" fill="#D88080"/>
<path d="M98.6705 267.168V268.105H94.8523V267.168H98.6705ZM103.321 272.119C102.963 272.114 102.605 272.045 102.247 271.915C101.889 271.784 101.562 271.564 101.267 271.254C100.971 270.942 100.734 270.52 100.555 269.989C100.376 269.455 100.287 268.784 100.287 267.977C100.287 267.205 100.359 266.52 100.504 265.923C100.649 265.324 100.859 264.82 101.135 264.411C101.41 263.999 101.743 263.686 102.132 263.473C102.524 263.26 102.966 263.153 103.457 263.153C103.946 263.153 104.38 263.251 104.761 263.447C105.145 263.641 105.457 263.911 105.699 264.257C105.94 264.604 106.096 265.003 106.167 265.455H105.127C105.031 265.062 104.843 264.737 104.565 264.479C104.287 264.22 103.917 264.091 103.457 264.091C102.781 264.091 102.248 264.385 101.859 264.973C101.473 265.561 101.278 266.386 101.275 267.449H101.343C101.502 267.207 101.691 267.001 101.91 266.831C102.132 266.658 102.376 266.524 102.643 266.43C102.91 266.337 103.193 266.29 103.491 266.29C103.991 266.29 104.449 266.415 104.863 266.665C105.278 266.912 105.61 267.254 105.86 267.692C106.11 268.126 106.235 268.625 106.235 269.188C106.235 269.727 106.115 270.222 105.873 270.67C105.632 271.116 105.292 271.472 104.855 271.736C104.42 271.997 103.909 272.125 103.321 272.119ZM103.321 271.182C103.679 271.182 104 271.092 104.284 270.913C104.571 270.734 104.797 270.494 104.961 270.193C105.129 269.892 105.213 269.557 105.213 269.188C105.213 268.827 105.132 268.499 104.97 268.203C104.811 267.905 104.591 267.668 104.309 267.491C104.031 267.315 103.713 267.227 103.355 267.227C103.085 267.227 102.833 267.281 102.6 267.389C102.368 267.494 102.163 267.639 101.987 267.824C101.814 268.009 101.677 268.22 101.578 268.459C101.478 268.695 101.429 268.943 101.429 269.205C101.429 269.551 101.51 269.875 101.672 270.176C101.836 270.477 102.061 270.72 102.345 270.905C102.632 271.089 102.957 271.182 103.321 271.182Z" fill="#D88080"/>
<path d="M73.6705 267.168V268.105H69.8523V267.168H73.6705ZM75.4261 272L79.3295 264.278V264.21H74.8295V263.273H80.4205V264.261L76.5341 272H75.4261Z" fill="#D88080"/>
<path d="M48.6705 267.168V268.105H44.8523V267.168H48.6705ZM53.2184 272.119C52.6332 272.119 52.1161 272.016 51.6673 271.808C51.2212 271.598 50.8732 271.31 50.6232 270.943C50.3732 270.574 50.2496 270.153 50.2525 269.682C50.2496 269.312 50.3221 268.972 50.4698 268.659C50.6175 268.344 50.8192 268.081 51.0749 267.871C51.3335 267.658 51.6218 267.523 51.94 267.466V267.415C51.5224 267.307 51.19 267.072 50.9428 266.712C50.6957 266.348 50.5735 265.935 50.5763 265.472C50.5735 265.028 50.6857 264.632 50.913 264.283C51.1403 263.933 51.4528 263.658 51.8505 263.456C52.2511 263.254 52.707 263.153 53.2184 263.153C53.7241 263.153 54.1758 263.254 54.5735 263.456C54.9712 263.658 55.2837 263.933 55.511 264.283C55.7411 264.632 55.8576 265.028 55.8604 265.472C55.8576 265.935 55.7312 266.348 55.4812 266.712C55.234 267.072 54.9059 267.307 54.4968 267.415V267.466C54.8121 267.523 55.0962 267.658 55.3491 267.871C55.6019 268.081 55.8036 268.344 55.9542 268.659C56.1048 268.972 56.1815 269.312 56.1843 269.682C56.1815 270.153 56.0536 270.574 55.8008 270.943C55.5508 271.31 55.2028 271.598 54.7567 271.808C54.3136 272.016 53.8008 272.119 53.2184 272.119ZM53.2184 271.182C53.6133 271.182 53.9542 271.118 54.2411 270.99C54.5281 270.862 54.7496 270.682 54.9059 270.449C55.0621 270.216 55.1417 269.943 55.1445 269.631C55.1417 269.301 55.0565 269.01 54.8888 268.757C54.7212 268.504 54.4925 268.305 54.2028 268.161C53.9158 268.016 53.5877 267.943 53.2184 267.943C52.8462 267.943 52.5138 268.016 52.2212 268.161C51.9315 268.305 51.7028 268.504 51.5352 268.757C51.3704 269.01 51.2894 269.301 51.2923 269.631C51.2894 269.943 51.3647 270.216 51.5181 270.449C51.6744 270.682 51.8974 270.862 52.1871 270.99C52.4769 271.118 52.8207 271.182 53.2184 271.182ZM53.2184 267.04C53.5309 267.04 53.8079 266.977 54.0494 266.852C54.2937 266.727 54.4854 266.553 54.6246 266.328C54.7638 266.104 54.8349 265.841 54.8377 265.54C54.8349 265.244 54.7653 264.987 54.6289 264.768C54.4925 264.547 54.3036 264.376 54.0621 264.257C53.8207 264.135 53.5394 264.074 53.2184 264.074C52.8917 264.074 52.6062 264.135 52.3619 264.257C52.1175 264.376 51.9286 264.547 51.7951 264.768C51.6616 264.987 51.5962 265.244 51.5991 265.54C51.5962 265.841 51.663 266.104 51.7994 266.328C51.9386 266.553 52.1303 266.727 52.3746 266.852C52.619 266.977 52.9002 267.04 53.2184 267.04Z" fill="#D88080"/>
<path d="M23.6705 267.168V268.105H19.8523V267.168H23.6705ZM28.2013 263.153C28.5593 263.156 28.9173 263.224 29.2752 263.358C29.6332 263.491 29.9599 263.713 30.2553 264.023C30.5508 264.33 30.788 264.749 30.967 265.28C31.146 265.811 31.2354 266.477 31.2354 267.278C31.2354 268.054 31.1616 268.743 31.0138 269.345C30.869 269.945 30.6587 270.45 30.3832 270.862C30.1104 271.274 29.7781 271.587 29.386 271.8C28.9968 272.013 28.5565 272.119 28.065 272.119C27.5763 272.119 27.1403 272.023 26.7567 271.83C26.3761 271.634 26.0636 271.362 25.8192 271.016C25.5778 270.666 25.4229 270.261 25.3548 269.801H26.3945C26.4883 270.202 26.6744 270.533 26.9528 270.794C27.234 271.053 27.6048 271.182 28.065 271.182C28.7383 271.182 29.2695 270.888 29.6587 270.3C30.0508 269.712 30.2468 268.881 30.2468 267.807H30.1786C30.0195 268.045 29.8306 268.251 29.6119 268.425C29.3931 268.598 29.1502 268.732 28.8832 268.825C28.6161 268.919 28.332 268.966 28.0309 268.966C27.5309 268.966 27.0721 268.842 26.6545 268.595C26.2397 268.345 25.9073 268.003 25.6573 267.568C25.4102 267.131 25.2866 266.631 25.2866 266.068C25.2866 265.534 25.4059 265.045 25.6445 264.602C25.886 264.156 26.2241 263.801 26.6587 263.537C27.0962 263.273 27.6104 263.145 28.2013 263.153ZM28.2013 264.091C27.8434 264.091 27.521 264.18 27.234 264.359C26.9499 264.536 26.7241 264.774 26.5565 265.075C26.3917 265.374 26.3093 265.705 26.3093 266.068C26.3093 266.432 26.3888 266.763 26.5479 267.061C26.7099 267.357 26.93 267.592 27.2085 267.768C27.4897 267.942 27.8093 268.028 28.1673 268.028C28.4371 268.028 28.6886 267.976 28.9215 267.871C29.1545 267.763 29.3576 267.616 29.5309 267.432C29.707 267.244 29.8448 267.033 29.9442 266.797C30.0437 266.558 30.0934 266.31 30.0934 266.051C30.0934 265.71 30.011 265.391 29.8462 265.092C29.6843 264.794 29.4599 264.553 29.1729 264.368C28.8888 264.183 28.565 264.091 28.2013 264.091Z" fill="#D88080"/>
<line x1="-0.353553" y1="499.646" x2="499.646" y2="-0.353566" stroke="#C688D6" stroke-dasharray="2 2"/>
<line x1="0.353553" y1="-0.353553" x2="500.354" y2="499.646" stroke="#C688D6" stroke-dasharray="2 2"/>
<path d="M321.178 98.2273V53.2273H328.814V98.2273H321.178ZM302.496 79.5455V71.9091H347.496V79.5455H302.496Z" fill="#80B3D8"/>
<path d="M171.178 98.2273V53.2273H178.814V98.2273H171.178ZM152.496 79.5455V71.9091H197.496V79.5455H152.496Z" fill="#80B3D8"/>
<path d="M189.286 421.318V428.818H158.74V421.318H189.286Z" fill="#80B3D8"/>
<path d="M340.286 421.318V428.818H309.74V421.318H340.286Z" fill="#80B3D8"/>
<path d="M421.178 198.227V153.227H428.814V198.227H421.178ZM402.496 179.545V171.909H447.496V179.545H402.496Z" fill="#D88080"/>
<path d="M422.178 348.227V303.227H429.814V348.227H422.178ZM403.496 329.545V321.909H448.496V329.545H403.496Z" fill="#D88080"/>
<path d="M90.2855 321.318V328.818H59.7401V321.318H90.2855Z" fill="#D88080"/>
<path d="M90.2855 171.318V178.818H59.7401V171.318H90.2855Z" fill="#D88080"/>
<circle cx="375" cy="125" r="19.5" fill="white" stroke="#C688D6"/>
<path d="M371.916 116.545V134H369.802V118.761H369.7L365.439 121.591V119.443L369.802 116.545H371.916ZM380.583 124.25C379.862 124.25 379.203 124.074 378.606 123.722C378.015 123.369 377.544 122.898 377.191 122.307C376.839 121.71 376.663 121.051 376.663 120.33C376.663 119.608 376.839 118.952 377.191 118.361C377.544 117.764 378.015 117.29 378.606 116.938C379.203 116.585 379.862 116.409 380.583 116.409C381.305 116.409 381.961 116.585 382.552 116.938C383.149 117.29 383.623 117.764 383.975 118.361C384.328 118.952 384.504 119.608 384.504 120.33C384.504 121.051 384.328 121.71 383.975 122.307C383.623 122.898 383.149 123.369 382.552 123.722C381.961 124.074 381.305 124.25 380.583 124.25ZM380.583 122.545C380.993 122.545 381.365 122.446 381.7 122.247C382.035 122.048 382.302 121.781 382.501 121.446C382.7 121.111 382.799 120.739 382.799 120.33C382.799 119.92 382.7 119.548 382.501 119.213C382.302 118.878 382.035 118.611 381.7 118.412C381.365 118.213 380.993 118.114 380.583 118.114C380.174 118.114 379.802 118.213 379.467 118.412C379.132 118.611 378.865 118.878 378.666 119.213C378.467 119.548 378.368 119.92 378.368 120.33C378.368 120.739 378.467 121.111 378.666 121.446C378.865 121.781 379.132 122.048 379.467 122.247C379.802 122.446 380.174 122.545 380.583 122.545Z" fill="#C688D6"/>
<circle cx="125" cy="123" r="19.5" fill="white" stroke="#C688D6"/>
<path d="M114.092 132V130.466L119.853 124.159C120.529 123.42 121.086 122.778 121.524 122.233C121.961 121.682 122.285 121.165 122.495 120.682C122.711 120.193 122.819 119.682 122.819 119.148C122.819 118.534 122.672 118.003 122.376 117.554C122.086 117.105 121.689 116.759 121.183 116.514C120.677 116.27 120.109 116.148 119.478 116.148C118.808 116.148 118.223 116.287 117.723 116.565C117.228 116.838 116.845 117.222 116.572 117.716C116.305 118.21 116.172 118.79 116.172 119.455H114.16C114.16 118.432 114.396 117.534 114.868 116.761C115.339 115.989 115.981 115.386 116.794 114.955C117.612 114.523 118.529 114.307 119.547 114.307C120.569 114.307 121.475 114.523 122.265 114.955C123.055 115.386 123.674 115.969 124.123 116.702C124.572 117.435 124.797 118.25 124.797 119.148C124.797 119.79 124.68 120.418 124.447 121.031C124.22 121.639 123.822 122.318 123.254 123.068C122.691 123.812 121.91 124.722 120.91 125.795L116.99 129.989V130.125H125.103V132H114.092ZM132.271 122.25C131.549 122.25 130.89 122.074 130.294 121.722C129.703 121.369 129.231 120.898 128.879 120.307C128.527 119.71 128.35 119.051 128.35 118.33C128.35 117.608 128.527 116.952 128.879 116.361C129.231 115.764 129.703 115.29 130.294 114.938C130.89 114.585 131.549 114.409 132.271 114.409C132.993 114.409 133.649 114.585 134.24 114.938C134.836 115.29 135.311 115.764 135.663 116.361C136.015 116.952 136.191 117.608 136.191 118.33C136.191 119.051 136.015 119.71 135.663 120.307C135.311 120.898 134.836 121.369 134.24 121.722C133.649 122.074 132.993 122.25 132.271 122.25ZM132.271 120.545C132.68 120.545 133.052 120.446 133.387 120.247C133.723 120.048 133.99 119.781 134.189 119.446C134.387 119.111 134.487 118.739 134.487 118.33C134.487 117.92 134.387 117.548 134.189 117.213C133.99 116.878 133.723 116.611 133.387 116.412C133.052 116.213 132.68 116.114 132.271 116.114C131.862 116.114 131.49 116.213 131.154 116.412C130.819 116.611 130.552 116.878 130.353 117.213C130.154 117.548 130.055 117.92 130.055 118.33C130.055 118.739 130.154 119.111 130.353 119.446C130.552 119.781 130.819 120.048 131.154 120.247C131.49 120.446 131.862 120.545 132.271 120.545Z" fill="#C688D6"/>
<circle cx="125" cy="375" r="19.5" fill="white" stroke="#C688D6"/>
<path d="M119.615 384.239C118.49 384.239 117.487 384.045 116.606 383.659C115.731 383.273 115.035 382.736 114.518 382.048C114.007 381.355 113.728 380.551 113.683 379.636H115.831C115.876 380.199 116.069 380.685 116.41 381.094C116.751 381.497 117.197 381.81 117.748 382.031C118.299 382.253 118.91 382.364 119.581 382.364C120.331 382.364 120.995 382.233 121.575 381.972C122.154 381.71 122.609 381.347 122.939 380.881C123.268 380.415 123.433 379.875 123.433 379.261C123.433 378.619 123.274 378.054 122.956 377.565C122.637 377.071 122.172 376.685 121.558 376.406C120.944 376.128 120.194 375.989 119.308 375.989H117.91V374.114H119.308C120.001 374.114 120.609 373.989 121.132 373.739C121.66 373.489 122.072 373.136 122.368 372.682C122.669 372.227 122.819 371.693 122.819 371.08C122.819 370.489 122.689 369.974 122.427 369.537C122.166 369.099 121.797 368.759 121.319 368.514C120.848 368.27 120.291 368.148 119.649 368.148C119.047 368.148 118.478 368.259 117.944 368.48C117.416 368.696 116.984 369.011 116.649 369.426C116.314 369.835 116.132 370.33 116.103 370.909H114.058C114.092 369.994 114.368 369.193 114.885 368.506C115.402 367.812 116.078 367.273 116.913 366.886C117.754 366.5 118.677 366.307 119.683 366.307C120.762 366.307 121.689 366.526 122.461 366.963C123.234 367.395 123.828 367.966 124.243 368.676C124.657 369.386 124.865 370.153 124.865 370.977C124.865 371.96 124.606 372.798 124.089 373.491C123.578 374.185 122.882 374.665 122.001 374.932V375.068C123.103 375.25 123.964 375.719 124.583 376.474C125.203 377.224 125.512 378.153 125.512 379.261C125.512 380.21 125.254 381.062 124.737 381.818C124.225 382.568 123.527 383.159 122.64 383.591C121.754 384.023 120.745 384.239 119.615 384.239ZM132.646 374.25C131.924 374.25 131.265 374.074 130.669 373.722C130.078 373.369 129.606 372.898 129.254 372.307C128.902 371.71 128.725 371.051 128.725 370.33C128.725 369.608 128.902 368.952 129.254 368.361C129.606 367.764 130.078 367.29 130.669 366.938C131.265 366.585 131.924 366.409 132.646 366.409C133.368 366.409 134.024 366.585 134.615 366.938C135.211 367.29 135.686 367.764 136.038 368.361C136.39 368.952 136.566 369.608 136.566 370.33C136.566 371.051 136.39 371.71 136.038 372.307C135.686 372.898 135.211 373.369 134.615 373.722C134.024 374.074 133.368 374.25 132.646 374.25ZM132.646 372.545C133.055 372.545 133.427 372.446 133.762 372.247C134.098 372.048 134.365 371.781 134.564 371.446C134.762 371.111 134.862 370.739 134.862 370.33C134.862 369.92 134.762 369.548 134.564 369.213C134.365 368.878 134.098 368.611 133.762 368.412C133.427 368.213 133.055 368.114 132.646 368.114C132.237 368.114 131.865 368.213 131.529 368.412C131.194 368.611 130.927 368.878 130.728 369.213C130.529 369.548 130.43 369.92 130.43 370.33C130.43 370.739 130.529 371.111 130.728 371.446C130.927 371.781 131.194 372.048 131.529 372.247C131.865 372.446 132.237 372.545 132.646 372.545Z" fill="#C688D6"/>
<circle cx="375" cy="375" r="19.5" fill="white" stroke="#C688D6"/>
<path d="M363.249 380.42V378.682L370.92 366.545H372.181V369.239H371.329L365.533 378.409V378.545H375.863V380.42H363.249ZM371.465 384V379.892V379.082V366.545H373.477V384H371.465ZM382.705 374.25C381.983 374.25 381.324 374.074 380.727 373.722C380.136 373.369 379.665 372.898 379.312 372.307C378.96 371.71 378.784 371.051 378.784 370.33C378.784 369.608 378.96 368.952 379.312 368.361C379.665 367.764 380.136 367.29 380.727 366.938C381.324 366.585 381.983 366.409 382.705 366.409C383.426 366.409 384.082 366.585 384.673 366.938C385.27 367.29 385.744 367.764 386.097 368.361C386.449 368.952 386.625 369.608 386.625 370.33C386.625 371.051 386.449 371.71 386.097 372.307C385.744 372.898 385.27 373.369 384.673 373.722C384.082 374.074 383.426 374.25 382.705 374.25ZM382.705 372.545C383.114 372.545 383.486 372.446 383.821 372.247C384.156 372.048 384.423 371.781 384.622 371.446C384.821 371.111 384.92 370.739 384.92 370.33C384.92 369.92 384.821 369.548 384.622 369.213C384.423 368.878 384.156 368.611 383.821 368.412C383.486 368.213 383.114 368.114 382.705 368.114C382.295 368.114 381.923 368.213 381.588 368.412C381.253 368.611 380.986 368.878 380.787 369.213C380.588 369.548 380.489 369.92 380.489 370.33C380.489 370.739 380.588 371.111 380.787 371.446C380.986 371.781 381.253 372.048 381.588 372.247C381.923 372.446 382.295 372.545 382.705 372.545Z" fill="#C688D6"/>
</g>
<defs>
<clipPath id="clip0_2_2">
<rect width="500" height="500" rx="8" fill="white"/>
</clipPath>
</defs>
</svg>
